<?xml version="1.0" encoding="UTF-8" standalone="no"?>
<!-- Uploaded to: SVG Repo, www.svgrepo.com, Transformed by: SVG Repo Mixer Tools -->

<svg
   fill="#000000"
   height="800px"
   width="800px"
   version="1.1"
   id="Layer_1"
   viewBox="0 0 472.615 472.615"
   xml:space="preserve"
   sodipodi:docname="messages.svg"
   inkscape:version="1.2.2 (b0a8486541, 2022-12-01)"
   xmlns:inkscape="http://www.inkscape.org/namespaces/inkscape"
   xmlns:sodipodi="http://sodipodi.sourceforge.net/DTD/sodipodi-0.dtd"
   xmlns="http://www.w3.org/2000/svg"
   xmlns:svg="http://www.w3.org/2000/svg"><defs
   id="defs35" /><sodipodi:namedview
   id="namedview33"
   pagecolor="#ffffff"
   bordercolor="#666666"
   borderopacity="1.0"
   inkscape:showpageshadow="2"
   inkscape:pageopacity="0.0"
   inkscape:pagecheckerboard="0"
   inkscape:deskcolor="#d1d1d1"
   showgrid="false"
   inkscape:zoom="0.295"
   inkscape:cx="398.30508"
   inkscape:cy="401.69492"
   inkscape:window-width="1278"
   inkscape:window-height="1408"
   inkscape:window-x="0"
   inkscape:window-y="0"
   inkscape:window-maximized="1"
   inkscape:current-layer="Layer_1" />
<g
   id="g6"
   style="fill:#424242;fill-opacity:1">
	<g
   id="g4"
   style="fill:#424242;fill-opacity:1">
		<path
   d="M59.077,393.828v78.787h354.462v-78.787H59.077z M285.538,443.059h-98.462c-5.442,0-9.846-4.404-9.846-9.846    c0-5.443,4.404-9.846,9.846-9.846h98.462c5.442,0,9.846,4.403,9.846,9.846C295.385,438.655,290.98,443.059,285.538,443.059z"
   id="path2"
   style="fill:#424242;fill-opacity:1" />
	</g>
</g>
<g
   id="g12"
   style="fill:#424242;fill-opacity:1">
	<g
   id="g10"
   style="fill:#424242;fill-opacity:1">
		<path
   d="M59.077,0v78.752h354.462V0H59.077z M246.154,49.213h-59.077V29.521h59.077V49.213z M285.538,49.213h-19.692V29.521    h19.692V49.213z"
   id="path8"
   style="fill:#424242;fill-opacity:1" />
	</g>
</g>
<g
   id="g18"
   style="fill:#32a75f;fill-opacity:1">
	<g
   id="g16"
   style="fill:#32a75f;fill-opacity:1">
		<path
   d="M364.308,128.447c-54.378,0-98.462,43.892-98.462,98.035c0,28.399,11.897,54.056,32.82,71.893v45.75l52.24-20.508    c4.382,0.594,8.856,0.901,13.402,0.901c54.378,0,98.462-43.892,98.462-98.036C462.769,172.339,418.686,128.447,364.308,128.447z     M334.769,177.213h59.077v19.692h-59.077V177.213z M393.846,275.675h-59.077v-19.692h59.077V275.675z M423.385,236.29H305.231    v-19.692h118.154V236.29z"
   id="path14"
   style="fill:#32a75f;fill-opacity:1" />
	</g>
</g>
<g
   id="g24"
   style="fill:#b8b8b8;fill-opacity:1">
	<g
   id="g22"
   style="fill:#b8b8b8;fill-opacity:1">
		<path
   d="M364.308,108.751c17.583,0,34.221,3.952,49.231,10.846V98.444H59.077v12.12c6.344-1.441,12.916-2.273,19.692-2.273    c48.865,0,88.615,39.615,88.615,88.317c0,22.423-8.087,42.952-22.971,58.73v52.501l-59-23.164c-2.221,0.163-4.443,0.25-6.644,0.25    c-6.776,0-13.349-0.832-19.692-2.273v91.486h354.462v-40.768c-15.01,6.892-31.648,10.845-49.231,10.845    c-3.577,0-7.183-0.163-10.75-0.48l-74.586,29.279v-66.038c-21.23-21.279-32.817-49.519-32.817-80.49    C246.154,161.568,299.154,108.751,364.308,108.751z"
   id="path20"
   style="fill:#b8b8b8;fill-opacity:1" />
	</g>
</g>
<g
   id="g30"
   style="fill:#3247a7;fill-opacity:1">
	<g
   id="g28"
   style="fill:#3247a7;fill-opacity:1">
		<path
   d="M78.769,127.978c-38.065,0-68.923,30.725-68.923,68.625c0,37.901,30.858,68.625,68.923,68.625    c3.182,0,6.313-0.215,9.381-0.63l36.568,14.356v-32.026c14.646-12.486,22.974-30.445,22.974-50.325    C147.692,158.703,116.834,127.978,78.769,127.978z M98.462,236.29H59.077v-19.692h39.385V236.29z M118.154,196.905H39.385v-19.692    h78.769V196.905z"
   id="path26"
   style="fill:#3247a7;fill-opacity:1" />
	</g>
</g>
</svg>
