<?xml version="1.0" encoding="UTF-8" standalone="no"?>
<!-- Uploaded to: SVG Repo, www.svgrepo.com, Transformed by: SVG Repo Mixer Tools -->

<svg
   height="800px"
   width="800px"
   version="1.1"
   id="Layer_1"
   viewBox="0 0 512 512"
   xml:space="preserve"
   sodipodi:docname="pulse.svg"
   inkscape:version="1.2.2 (b0a8486541, 2022-12-01)"
   xmlns:inkscape="http://www.inkscape.org/namespaces/inkscape"
   xmlns:sodipodi="http://sodipodi.sourceforge.net/DTD/sodipodi-0.dtd"
   xmlns="http://www.w3.org/2000/svg"
   xmlns:svg="http://www.w3.org/2000/svg"><defs
   id="defs7495" /><sodipodi:namedview
   id="namedview7493"
   pagecolor="#ffffff"
   bordercolor="#666666"
   borderopacity="1.0"
   inkscape:showpageshadow="2"
   inkscape:pageopacity="0.0"
   inkscape:pagecheckerboard="0"
   inkscape:deskcolor="#d1d1d1"
   showgrid="false"
   inkscape:zoom="0.295"
   inkscape:cx="394.91525"
   inkscape:cy="401.69492"
   inkscape:window-width="852"
   inkscape:window-height="1408"
   inkscape:window-x="0"
   inkscape:window-y="0"
   inkscape:window-maximized="1"
   inkscape:current-layer="Layer_1" />
<path
   style="fill:#00a578;fill-opacity:1"
   d="M0,256.006C0,397.402,114.606,512.004,255.996,512C397.394,512.004,512,397.402,512,256.006  C512.009,114.61,397.394,0,255.996,0C114.606,0,0,114.614,0,256.006z"
   id="path7486" />
<path
   style="fill:#009369;fill-opacity:1"
   d="M505.383,313.737c-0.282-0.292-0.533-0.612-0.865-0.865c-0.442-0.581-57.049-57.187-57.63-57.63  c-0.947-1.247-2.175-2.206-3.683-2.731c-0.243-0.234-0.54-0.386-0.811-0.588c-0.448-0.574-164.723-164.875-165.308-165.308  c-1.476-1.894-3.677-3.181-6.235-3.181h-0.101c-4.193,0.054-7.634,3.327-7.909,7.508l-3.843,59.621  c-0.019-0.014-0.042-0.025-0.061-0.039c-0.446-0.576-23.671-23.822-24.25-24.255c-1.455-1.899-3.632-3.205-6.185-3.234  c-3.833-0.117-7.681,3.111-8.073,7.266l-6.73,70.704c-0.075-0.06-0.164-0.097-0.241-0.154c-0.446-0.574-20.642-20.793-21.22-21.225  c-1.42-1.84-3.523-3.114-5.983-3.199c-3.942-0.188-7.399,2.603-8.16,6.47l-10.981,55.742c-0.181-0.165-0.363-0.319-0.559-0.467  c-0.442-0.574-16.11-16.25-16.684-16.684c-1.285-1.673-3.169-2.842-5.331-3.113c-3.127-0.396-6.129,1.05-7.791,3.684l-18.858,29.922  H71.397c-4.436,0-8.026,3.594-8.026,8.026c0,2.61,1.327,4.821,3.257,6.287c0.442,0.582,239.039,239.179,239.62,239.621  c0.277,0.365,0.624,0.646,0.95,0.95C405.315,486.958,482.976,410.922,505.383,313.737z"
   id="path7488" />
<path
   style="fill:#F4F6F9;"
   d="M440.603,251.987H382.1l-19.07-41.641c-1.403-3.065-4.554-4.911-7.932-4.659  c-3.362,0.267-6.192,2.606-7.101,5.851l-11.663,41.938l-15.135-87.473c-0.674-3.903-3.989-6.513-8.058-6.658  c-3.958,0.075-7.274,3.029-7.807,6.953l-11.71,86.916L278.848,90.738c-0.377-4.143-3.849-7.301-7.995-7.301c-0.031,0-0.07,0-0.102,0  c-4.193,0.054-7.634,3.327-7.908,7.509L249.126,303.75l-12.705-173.273c-0.306-4.158-3.746-7.391-7.917-7.438  c-3.833-0.117-7.681,3.111-8.074,7.266l-14.32,150.452l-12.173-97.298c-0.486-3.911-3.746-6.89-7.681-7.027  c-3.942-0.188-7.399,2.603-8.159,6.47l-15.221,77.26l-11.695-36.283c-0.956-2.963-3.551-5.11-6.639-5.499  c-3.127-0.396-6.129,1.051-7.791,3.684l-18.859,29.922H71.397c-4.436,0-8.027,3.594-8.027,8.027s3.589,8.027,8.027,8.027h50.924  c2.759,0,5.322-1.414,6.788-3.746l12.063-19.137l15.942,49.454c1.121,3.476,4.476,5.738,8.112,5.546  c3.652-0.211,6.693-2.868,7.407-6.459l11.569-58.742l15.034,120.118c0.501,4.021,3.919,7.03,7.964,7.03c0.039,0,0.078,0,0.117,0  c4.092-0.063,7.486-3.19,7.87-7.266l12.196-128.129l14.25,194.416c0.306,4.193,3.802,7.438,8.003,7.438h0.031  c4.225-0.019,7.705-3.3,7.979-7.509l14.571-225.98l11.859,130.453c0.368,4.068,3.739,7.211,7.823,7.301  c4.209-0.278,7.58-2.912,8.128-6.953l14.25-105.732l12.321,71.213c0.643,3.699,3.755,6.463,7.509,6.646  c3.762,0.271,7.125-2.25,8.135-5.862l15.339-55.145l12.07,26.359c1.309,2.853,4.162,4.684,7.297,4.684h63.653  c4.436,0,8.027-3.594,8.027-8.027C448.628,255.581,445.039,251.987,440.603,251.987z"
   id="path7490" />
</svg>
