<?xml version="1.0" encoding="UTF-8" standalone="no"?>
<!-- Uploaded to: SVG Repo, www.svgrepo.com, Transformed by: SVG Repo Mixer Tools -->

<svg
   fill="#000000"
   version="1.1"
   id="Layer_1"
   viewBox="0 0 491.52 491.52"
   xml:space="preserve"
   sodipodi:docname="ratings.svg"
   inkscape:version="1.2.2 (b0a8486541, 2022-12-01)"
   xmlns:inkscape="http://www.inkscape.org/namespaces/inkscape"
   xmlns:sodipodi="http://sodipodi.sourceforge.net/DTD/sodipodi-0.dtd"
   xmlns="http://www.w3.org/2000/svg"
   xmlns:svg="http://www.w3.org/2000/svg"><defs
   id="defs322" /><sodipodi:namedview
   id="namedview320"
   pagecolor="#ffffff"
   bordercolor="#666666"
   borderopacity="1.0"
   inkscape:showpageshadow="2"
   inkscape:pageopacity="0.0"
   inkscape:pagecheckerboard="0"
   inkscape:deskcolor="#d1d1d1"
   showgrid="false"
   inkscape:zoom="2.3579915"
   inkscape:cx="245.76"
   inkscape:cy="245.76"
   inkscape:window-width="2560"
   inkscape:window-height="1410"
   inkscape:window-x="0"
   inkscape:window-y="0"
   inkscape:window-maximized="1"
   inkscape:current-layer="Layer_1" />
<g
   id="g269"
   style="fill:#000000;fill-opacity:1">
	<g
   id="g267"
   style="fill:#000000;fill-opacity:1">
		<path
   d="M163.34,59.006c-1.065-3.28-3.715-5.805-7.045-6.715L114.34,40.836L90.48,4.476c-3.78-5.77-13.34-5.77-17.12,0    l-23.855,36.36L7.545,52.291c-3.33,0.91-5.98,3.435-7.045,6.715c-1.065,3.285-0.405,6.88,1.75,9.57l27.215,33.93l-2.075,43.44    c-0.165,3.45,1.42,6.745,4.21,8.775c1.775,1.29,3.89,1.955,6.02,1.955c1.22,0,2.45-0.22,3.625-0.665l40.675-15.395l40.68,15.395    c3.225,1.225,6.855,0.74,9.645-1.29c2.79-2.03,4.375-5.325,4.21-8.775l-2.075-43.44l27.21-33.93    C163.745,65.886,164.405,62.286,163.34,59.006z M115.975,92.716c-1.56,1.945-2.355,4.4-2.24,6.895l1.515,31.725l-29.705-11.245    c-1.17-0.445-2.395-0.665-3.625-0.665c-1.23,0-2.455,0.22-3.625,0.665l-29.7,11.24l1.515-31.72c0.12-2.495-0.68-4.95-2.24-6.895    L27.995,67.941l30.64-8.365c2.41-0.66,4.495-2.175,5.865-4.265l17.42-26.55l17.425,26.55c1.37,2.09,3.455,3.605,5.865,4.265    l30.635,8.365L115.975,92.716z"
   id="path265"
   style="fill:#000000;fill-opacity:1" />
	</g>
</g>
<g
   id="g275">
	<g
   id="g273">
		<rect
   x="204.8"
   y="51.051"
   width="174.08"
   height="20.48"
   id="rect271" />
	</g>
</g>
<g
   id="g281">
	<g
   id="g279">
		<rect
   x="204.8"
   y="102.251"
   width="286.72"
   height="20.48"
   id="rect277" />
	</g>
</g>
<g
   id="g287">
	<g
   id="g285">
		<path
   d="M163.34,226.351c-1.07-3.28-3.715-5.805-7.045-6.715l-41.955-11.45l-23.86-36.36c-3.78-5.77-13.34-5.77-17.12,0    l-23.855,36.36l-41.96,11.45c-3.33,0.91-5.975,3.435-7.045,6.715c-1.065,3.28-0.405,6.88,1.75,9.57l27.215,33.93l-2.075,43.44    c-0.165,3.45,1.42,6.745,4.21,8.775c2.785,2.02,6.415,2.505,9.645,1.29l40.675-15.395l40.68,15.395    c1.175,0.445,2.405,0.665,3.625,0.665c2.13,0,4.245-0.665,6.02-1.955c2.79-2.03,4.375-5.325,4.21-8.775l-2.075-43.44l27.21-33.93    C163.745,233.231,164.405,229.631,163.34,226.351z M115.975,260.061c-1.56,1.945-2.355,4.4-2.24,6.895l1.515,31.725    l-29.705-11.245c-1.17-0.445-2.395-0.665-3.625-0.665c-1.23,0-2.455,0.22-3.625,0.665l-29.7,11.24l1.515-31.72    c0.12-2.495-0.68-4.95-2.24-6.895l-19.875-24.775l30.64-8.36c2.41-0.66,4.495-2.175,5.865-4.265l17.42-26.55l17.425,26.55    c1.37,2.09,3.455,3.605,5.865,4.265l30.635,8.36L115.975,260.061z"
   id="path283" />
	</g>
</g>
<g
   id="g293">
	<g
   id="g291">
		<rect
   x="204.8"
   y="214.891"
   width="174.08"
   height="20.48"
   id="rect289" />
	</g>
</g>
<g
   id="g299">
	<g
   id="g297">
		<rect
   x="204.8"
   y="266.091"
   width="286.72"
   height="20.48"
   id="rect295" />
	</g>
</g>
<g
   id="g305">
	<g
   id="g303">
		<path
   d="M163.34,393.701c-1.07-3.28-3.715-5.805-7.045-6.715l-41.955-11.45l-23.86-36.365c-3.78-5.77-13.34-5.77-17.12,0    l-23.855,36.365l-41.96,11.45c-3.33,0.91-5.975,3.435-7.045,6.715c-1.065,3.28-0.405,6.88,1.75,9.57l27.215,33.93l-2.075,43.44    c-0.165,3.45,1.42,6.745,4.21,8.775c2.785,2.03,6.415,2.505,9.645,1.29l40.675-15.395l40.68,15.395    c1.175,0.445,2.405,0.665,3.625,0.665c2.13,0,4.245-0.665,6.02-1.955c2.79-2.03,4.375-5.325,4.21-8.775l-2.075-43.44l27.21-33.93    C163.745,400.581,164.405,396.981,163.34,393.701z M115.975,427.411c-1.56,1.945-2.355,4.4-2.24,6.895l1.515,31.725    l-29.705-11.245c-1.17-0.445-2.395-0.665-3.625-0.665c-1.23,0-2.455,0.22-3.625,0.665l-29.7,11.24l1.515-31.72    c0.12-2.495-0.68-4.95-2.24-6.895l-19.875-24.775l30.64-8.36c2.41-0.66,4.495-2.175,5.865-4.265l17.42-26.555l17.425,26.555    c1.37,2.09,3.455,3.605,5.865,4.265l30.635,8.36L115.975,427.411z"
   id="path301" />
	</g>
</g>
<g
   id="g311">
	<g
   id="g309">
		<rect
   x="204.8"
   y="388.971"
   width="174.08"
   height="20.48"
   id="rect307" />
	</g>
</g>
<g
   id="g317">
	<g
   id="g315">
		<rect
   x="204.8"
   y="440.171"
   width="286.72"
   height="20.48"
   id="rect313" />
	</g>
</g>
</svg>
