<?xml version="1.0" encoding="iso-8859-1"?>
<!-- Uploaded to: SVG Repo, www.svgrepo.com, Generator: SVG Repo Mixer Tools -->
<svg height="800px" width="800px" version="1.1" id="Layer_1" xmlns="http://www.w3.org/2000/svg" xmlns:xlink="http://www.w3.org/1999/xlink" 
	 viewBox="0 0 392.533 392.533" xml:space="preserve">
<path style="fill:#FFFFFF;" d="M309.333,103.281c0-6.012-4.848-10.925-10.925-10.925h-15.58c0,0,0,0-0.065,0h-0.065H93.996
	c-6.012,0-10.925,4.848-10.925,10.925v109.964l106.085,90.634c4.073,3.491,10.02,3.491,14.158,0l106.02-90.634V103.281z"/>
<polygon style="fill:#FFC10D;" points="104.857,203.612 104.857,114.012 287.547,114.012 287.547,203.741 196.073,283.386 "/>
<g>
	<path style="fill:#194F82;" d="M254.125,147.111H138.279c-6.012,0-10.925-4.848-10.925-10.925c0-6.012,4.848-10.925,10.925-10.925
		H254.19c6.012,0,10.925,4.848,10.925,10.925C265.051,142.198,260.202,147.111,254.125,147.111z"/>
	<path style="fill:#194F82;" d="M254.125,188.291H138.279c-6.012,0-10.925-4.848-10.925-10.925c0-6.012,4.848-10.925,10.925-10.925
		H254.19c6.012,0,10.925,4.848,10.925,10.925C265.051,183.442,260.202,188.291,254.125,188.291z"/>
	<path style="fill:#194F82;" d="M236.218,229.535h-80.032c-6.012,0-10.925-4.848-10.925-10.925c0-6.012,4.848-10.925,10.925-10.925
		h80.032c6.012,0,10.925,4.848,10.925,10.925C247.143,224.622,242.23,229.535,236.218,229.535z"/>
	<path style="fill:#194F82;" d="M388.59,157.584l-57.471-49.131v-5.172c0-18.036-14.675-32.711-32.711-32.711h-11.572
		l-69.366-59.216c-12.283-10.537-30.19-10.537-42.473,0l-69.366,59.281H94.061c-18.036,0-32.711,14.675-32.711,32.711v5.172
		L3.879,157.648C1.552,159.976,0,162.562,0,165.923v190.448c0,18.036,14.675,32.711,32.711,32.711h327.111
		c18.036,0,32.711-14.675,32.711-32.711V165.859C392.404,162.497,390.982,159.782,388.59,157.584z M331.119,137.156l33.616,28.768
		l-33.616,28.768V137.156z M189.091,27.838c4.073-3.491,10.02-3.491,14.158,0L253.22,70.57H139.184L189.091,27.838z M83.071,103.281
		c0-6.012,4.848-10.925,10.925-10.925h188.768h0.065c0,0,0,0,0.065,0h15.58c6.012,0,10.925,4.848,10.925,10.925v109.964
		l-106.085,90.634c-4.073,3.491-10.02,3.491-14.158,0L83.071,213.244V103.281z M61.285,137.156v57.471l-33.616-28.768
		L61.285,137.156z M21.721,354.497V189.519l96.517,82.554L21.721,354.497z M40.339,367.297l94.642-80.873l39.887,34.069
		c12.154,10.214,30.319,10.343,42.473,0l39.887-34.069l94.642,80.873H40.339L40.339,367.297z M370.683,354.497l-96.517-82.424
		l96.517-82.554V354.497z"/>
</g>
<g>
	<path style="fill:#56ACE0;" d="M217.471,320.493c-12.283,10.343-30.384,10.214-42.473,0l-39.887-34.069l-94.772,80.873H352
		l-94.707-80.937L217.471,320.493z"/>
	<polygon style="fill:#56ACE0;" points="370.683,354.497 370.683,189.519 274.166,272.073 	"/>
	<polygon style="fill:#56ACE0;" points="21.721,189.519 21.721,354.497 118.238,272.073 	"/>
</g>
<g>
	<polygon style="fill:#FFFFFF;" points="27.604,165.859 61.285,194.626 61.285,137.156 	"/>
	<polygon style="fill:#FFFFFF;" points="331.119,137.156 331.119,194.626 364.8,165.859 	"/>
	<path style="fill:#FFFFFF;" d="M139.184,70.57h114.101l-49.972-42.731c-4.073-3.491-10.02-3.491-14.158,0L139.184,70.57z"/>
</g>
</svg>