<?xml version="1.0" encoding="UTF-8" standalone="no"?>
<svg
   height="478.57321"
   version="1.1"
   viewBox="0 0 447.38 478.57321"
   width="447.38"
   xml:space="preserve"
   id="svg20"
   sodipodi:docname="source_type_google_play.svg"
   inkscape:version="1.2.2 (b0a8486541, 2022-12-01)"
   xmlns:inkscape="http://www.inkscape.org/namespaces/inkscape"
   xmlns:sodipodi="http://sodipodi.sourceforge.net/DTD/sodipodi-0.dtd"
   xmlns="http://www.w3.org/2000/svg"
   xmlns:svg="http://www.w3.org/2000/svg"><defs
     id="defs24" /><sodipodi:namedview
     id="namedview22"
     pagecolor="#ffffff"
     bordercolor="#666666"
     borderopacity="1.0"
     inkscape:showpageshadow="2"
     inkscape:pageopacity="0.0"
     inkscape:pagecheckerboard="0"
     inkscape:deskcolor="#d1d1d1"
     showgrid="false"
     inkscape:zoom="0.4609375"
     inkscape:cx="222.37288"
     inkscape:cy="238.64407"
     inkscape:window-width="2558"
     inkscape:window-height="703"
     inkscape:window-x="0"
     inkscape:window-y="0"
     inkscape:window-maximized="1"
     inkscape:current-layer="svg20" /><g
     id="_x31_03-GooglePlay_x2C__play_x2C__google_play_x2C__apps"
     transform="translate(-32.724,-16.295786)"><g
       id="g16"><g
         id="g14"><g
           id="g12"><path
             d="M 280.572,246.052 49.721,477.526 C 38.687,467.061 32.724,452.707 32.724,437.152 V 74.096 c 0,-15.849 6.263,-30.207 17.597,-40.968 z m 0,0"
             style="fill:#2299f8"
             id="path2" /><g
             id="g8"><path
               d="m 480.104,255.62 c 0,20.938 -11.34,39.477 -30.131,49.95 l -65.605,36.482 -81.428,-75.367 -22.367,-20.634 86.193,-86.429 83.207,46.056 c 18.791,10.474 30.131,29.012 30.131,49.942 z m 0,0"
               style="fill:#ffc107"
               id="path4" /><path
               d="M 280.572,246.052 50.321,33.127 c 2.981,-2.996 6.862,-5.685 10.739,-8.077 18.787,-11.363 41.456,-11.667 60.839,-0.895 l 244.867,135.467 z m 0,0"
               style="fill:#5acf5f"
               id="path6" /></g><path
             d="M 384.367,342.053 121.899,487.095 c -9.243,5.386 -19.688,7.774 -29.826,7.774 -10.734,0 -21.469,-2.69 -31.013,-8.668 -4.182,-2.394 -8.058,-5.384 -11.339,-8.675 l 230.851,-231.475 22.367,20.634 z m 0,0"
             style="fill:#f84437"
             id="path10" /></g></g></g></g><g
     id="Layer_1"
     transform="translate(-32.724,-16.295786)" /></svg>
