<?xml version="1.0" encoding="iso-8859-1"?>
<!-- Uploaded to: SVG Repo, www.svgrepo.com, Transformed by: SVG Repo Mixer Tools -->
<svg height="800px" width="800px" version="1.1" id="Layer_1" xmlns="http://www.w3.org/2000/svg" xmlns:xlink="http://www.w3.org/1999/xlink" 
	 viewBox="0 0 495 495" xml:space="preserve">
<g>
	<polygon style="fill:#EE8700;" points="247.5,0 247.5,40 455,40 455,455 247.5,455 247.5,495 495,495 495,0 	"/>
	<polygon style="fill:#FF9811;" points="40,455 40,40 247.5,40 247.5,0 0,0 0,495 247.5,495 247.5,455 	"/>
	<path style="fill:#FF9811;" d="M131.821,404.606c11.567,0,21.958-4.629,29.614-12.219c7.586-7.604,12.237-17.925,12.272-29.426
		c-0.035-11.502-4.686-21.844-12.307-29.466c-7.621-7.586-18.012-12.254-29.579-12.254c-11.555,0-21.928,4.668-29.549,12.237
		C94.681,341.086,90,351.459,90,362.961c0,11.502,4.681,21.84,12.272,29.426C109.876,399.96,120.266,404.606,131.821,404.606z"/>
	<path style="fill:#FF9811;" d="M237.451,404.899c0.017,0,0.017,0.101,0.017,0.101h60.397
		c-0.052-57.304-23.345-109.187-60.996-146.869c-37.664-37.686-89.534-60.979-146.833-61.014v60.139
		c39.27,0.035,76.409,15.452,104.195,43.291C222.02,328.302,237.385,365.489,237.451,404.899z"/>
	<path style="fill:#FF9811;" d="M344.708,405H405c-0.035-86.835-35.341-165.515-92.369-222.578
		C255.567,125.359,176.953,90.035,90.136,90v60.121C230.512,150.226,344.603,264.505,344.708,405z"/>
</g>
</svg>