<?xml version="1.0" encoding="UTF-8" standalone="no"?>
<!-- Uploaded to: SVG Repo, www.svgrepo.com, Transformed by: SVG Repo Mixer Tools -->

<svg
   fill="#000000"
   version="1.1"
   id="Layer_1"
   viewBox="0 0 472.615 472.615"
   xml:space="preserve"
   sodipodi:docname="work.svg"
   inkscape:version="1.2.2 (b0a8486541, 2022-12-01)"
   xmlns:inkscape="http://www.inkscape.org/namespaces/inkscape"
   xmlns:sodipodi="http://sodipodi.sourceforge.net/DTD/sodipodi-0.dtd"
   xmlns="http://www.w3.org/2000/svg"
   xmlns:svg="http://www.w3.org/2000/svg"><defs
   id="defs208" /><sodipodi:namedview
   id="namedview206"
   pagecolor="#ffffff"
   bordercolor="#666666"
   borderopacity="1.0"
   inkscape:showpageshadow="2"
   inkscape:pageopacity="0.0"
   inkscape:pagecheckerboard="0"
   inkscape:deskcolor="#d1d1d1"
   showgrid="false"
   inkscape:zoom="4.9046264"
   inkscape:cx="22.835582"
   inkscape:cy="99.39595"
   inkscape:window-width="1278"
   inkscape:window-height="1408"
   inkscape:window-x="0"
   inkscape:window-y="0"
   inkscape:window-maximized="1"
   inkscape:current-layer="Layer_1" />
<g
   id="g191"
   style="fill:#b8b8b8;fill-opacity:1">
	<g
   id="g189"
   style="fill:#b8b8b8;fill-opacity:1">
		<polygon
   points="472.615,403.692 472.615,354.428 0,354.428 0,403.692 147.692,403.692 147.692,452.923 108.308,452.923     108.308,472.615 364.308,472.615 364.308,452.923 324.923,452.923 324.923,403.692   "
   id="polygon187"
   style="fill:#b8b8b8;fill-opacity:1" />
	</g>
</g>
<g
   inkscape:groupmode="layer"
   id="layer1"
   inkscape:label="Layer 1"
   style="fill:#b8b8b8;fill-opacity:1" /><g
   id="g197"
   style="fill:#9c7f71;fill-opacity:1">
	<g
   id="g195"
   style="fill:#9c7f71;fill-opacity:1">
		<rect
   x="187.175"
   y="64.108"
   width="98.462"
   height="19.692"
   id="rect193"
   style="fill:#9c7f71;fill-opacity:1" />
	</g>
</g>
<g
   id="g203"
   style="fill:#9c7f71;fill-opacity:1">
	<g
   id="g201"
   style="fill:#9c7f71;fill-opacity:1">
		<path
   d="M0,0v334.736h472.615V0H0z M403.834,300.449H69.065V127.263l84.538,84.538h63.154v19.692h39.385v-19.692h63.154    l84.538-84.538V300.449z M403.834,99.416l-92.693,92.693h-55c0-10.875-8.816-19.692-19.692-19.692    c-10.875,0-19.692,8.817-19.692,19.692h-55L69.065,99.416V83.834h98.462V44.416h137.846v39.418h98.461V99.416z"
   id="path199"
   style="fill:#9c7f71;fill-opacity:1" />
	</g>
</g>
<rect
   style="fill:none;fill-opacity:1;stroke:#b8b8b8;stroke-width:9.44882;stroke-dasharray:none;stroke-opacity:1;stop-color:#000000"
   id="rect6267"
   width="462.88321"
   height="333.13336"
   x="4.8108077"
   y="4.8297629" /></svg>
